# xmcd
#
# Track frame offsets: 
#        150
#        4336
#        31072
#        41721
#        44014
#        64938
#        67075
#        79824
#        97448
#        115973
#        125182
#        138342
#        151527
#        153608
#        173465
#        194503
#        213890
#        216464
#        233669
#        242853
#        245177
#        261564
#        264712
#        280535
#
# Disc length: 3977 seconds
#
# Revision: 0
# Processed by: cddbd v1.5.2PL0 Copyright (c) Steve Scherf et al.
# Submitted via: ExactAudioCopy v0.95b4
#
DISCID=740f8718
DTITLE=Perrosky - El Ritmo y la Calle
DYEAR=2006
DGENRE=Blues
TTITLE0=Raperos Callejeros (micro de santiago)
TTITLE1=Abajo
TTITLE2=Revólver
TTITLE3=Héctor (el chuby chequer)
TTITLE4=Olvídate
TTITLE5=John Cárdenas (blusero chileno)
TTITLE6=Si tú pudieras
TTITLE7=Lejos...
TTITLE8=Lagonías
TTITLE9=Gloria
TTITLE10=Piano
TTITLE11=Solo
TTITLE12=Jazz Callejero (blue moon)
TTITLE13=AM
TTITLE14=Lo que te dan
TTITLE15=La Muñeca
TTITLE16=Elvis Júnior (personaje de santiago)
TTITLE17=Donde paro Donde voy
TTITLE18=El Ritmo
TTITLE19=Organillero (del pueblo)
TTITLE20=El Pobre Diablo
TTITLE21=Acordeonista callejero (micro de santiago)
TTITLE22=El tránsito
TTITLE23=El piano de Omar
EXTD=
EXTT0=
EXTT1=
EXTT2=
EXTT3=
EXTT4=
EXTT5=
EXTT6=
EXTT7=
EXTT8=
EXTT9=
EXTT10=
EXTT11=
EXTT12=
EXTT13=
EXTT14=
EXTT15=
EXTT16=
EXTT17=
EXTT18=
EXTT19=
EXTT20=
EXTT21=
EXTT22=
EXTT23=
PLAYORDER=
